<mxfile host="app.diagrams.net" modified="2023-08-21T12:41:31.915Z" agent="Mozilla/5.0 (Windows NT 10.0; Win64; x64) AppleWebKit/537.36 (KHTML, like Gecko) Chrome/116.0.0.0 Safari/537.36" etag="gFuTejZBh2HyPg-mkPqG" version="21.6.8" type="device">
  <diagram name="Seite-1" id="0xRWrOWs2Q22p2dFtw91">
    <mxGraphModel dx="1728" dy="998" grid="1" gridSize="10" guides="1" tooltips="1" connect="1" arrows="1" fold="1" page="1" pageScale="1" pageWidth="827" pageHeight="1169" math="0" shadow="0">
      <root>
        <mxCell id="0" />
        <mxCell id="1" parent="0" />
        <mxCell id="giKhaPo_mACQfktI18R5-3" value="general structure" style="swimlane;horizontal=0;whiteSpace=wrap;html=1;" vertex="1" collapsed="1" parent="1">
          <mxGeometry x="14" y="80" width="40" height="130" as="geometry">
            <mxRectangle x="14" y="80" width="570" height="484" as="alternateBounds" />
          </mxGeometry>
        </mxCell>
        <mxCell id="B66Gg8gdmocd1PTKvk_F-1" value="" style="ellipse;whiteSpace=wrap;html=1;" parent="giKhaPo_mACQfktI18R5-3" vertex="1">
          <mxGeometry x="116" y="19" width="20" height="20" as="geometry" />
        </mxCell>
        <mxCell id="B66Gg8gdmocd1PTKvk_F-2" value="" style="endArrow=none;html=1;rounded=0;entryX=0.5;entryY=1;entryDx=0;entryDy=0;exitX=0.5;exitY=0;exitDx=0;exitDy=0;" parent="giKhaPo_mACQfktI18R5-3" source="B66Gg8gdmocd1PTKvk_F-9" target="B66Gg8gdmocd1PTKvk_F-1" edge="1">
          <mxGeometry width="50" height="50" relative="1" as="geometry">
            <mxPoint x="126" y="389" as="sourcePoint" />
            <mxPoint x="226" y="69" as="targetPoint" />
          </mxGeometry>
        </mxCell>
        <mxCell id="B66Gg8gdmocd1PTKvk_F-3" value="HAL_Init()" style="rounded=0;whiteSpace=wrap;html=1;" parent="giKhaPo_mACQfktI18R5-3" vertex="1">
          <mxGeometry x="46" y="69" width="160" height="20" as="geometry" />
        </mxCell>
        <mxCell id="B66Gg8gdmocd1PTKvk_F-4" value="&amp;nbsp;SystemClock_Config()" style="rounded=0;whiteSpace=wrap;html=1;" parent="giKhaPo_mACQfktI18R5-3" vertex="1">
          <mxGeometry x="46" y="137" width="160" height="20" as="geometry" />
        </mxCell>
        <mxCell id="B66Gg8gdmocd1PTKvk_F-5" value="MX_GPIO_Init()" style="rounded=0;whiteSpace=wrap;html=1;" parent="giKhaPo_mACQfktI18R5-3" vertex="1">
          <mxGeometry x="46" y="205" width="160" height="20" as="geometry" />
        </mxCell>
        <mxCell id="B66Gg8gdmocd1PTKvk_F-6" value="MX_ADC_Init()" style="rounded=0;whiteSpace=wrap;html=1;" parent="giKhaPo_mACQfktI18R5-3" vertex="1">
          <mxGeometry x="46" y="273" width="160" height="20" as="geometry" />
        </mxCell>
        <mxCell id="B66Gg8gdmocd1PTKvk_F-8" value="MX_SPI1_Init()" style="rounded=0;whiteSpace=wrap;html=1;" parent="giKhaPo_mACQfktI18R5-3" vertex="1">
          <mxGeometry x="46" y="341" width="160" height="20" as="geometry" />
        </mxCell>
        <mxCell id="B66Gg8gdmocd1PTKvk_F-9" value="" style="ellipse;whiteSpace=wrap;html=1;" parent="giKhaPo_mACQfktI18R5-3" vertex="1">
          <mxGeometry x="116" y="464" width="20" height="20" as="geometry" />
        </mxCell>
        <mxCell id="B66Gg8gdmocd1PTKvk_F-10" value="" style="ellipse;whiteSpace=wrap;html=1;fillStyle=solid;fillColor=#000000;" parent="giKhaPo_mACQfktI18R5-3" vertex="1">
          <mxGeometry x="121" y="469" width="10" height="10" as="geometry" />
        </mxCell>
        <mxCell id="B66Gg8gdmocd1PTKvk_F-11" value="" style="endArrow=none;dashed=1;html=1;rounded=0;" parent="giKhaPo_mACQfktI18R5-3" edge="1">
          <mxGeometry width="50" height="50" relative="1" as="geometry">
            <mxPoint x="216" y="209" as="sourcePoint" />
            <mxPoint x="366" y="209" as="targetPoint" />
          </mxGeometry>
        </mxCell>
        <mxCell id="B66Gg8gdmocd1PTKvk_F-12" value="&lt;h1&gt;EXTI fÃ¼r Button (GPIO A10)&lt;/h1&gt;&lt;p&gt;Wakeup-source GPIO, Callback Buttonhandler&lt;/p&gt;" style="text;html=1;strokeColor=none;fillColor=none;spacing=5;spacingTop=-20;whiteSpace=wrap;overflow=hidden;rounded=0;" parent="giKhaPo_mACQfktI18R5-3" vertex="1">
          <mxGeometry x="380" y="189" width="190" height="120" as="geometry" />
        </mxCell>
        <mxCell id="B66Gg8gdmocd1PTKvk_F-13" value="Enter_Sleep_Mode()" style="rounded=0;whiteSpace=wrap;html=1;" parent="giKhaPo_mACQfktI18R5-3" vertex="1">
          <mxGeometry x="46" y="409" width="160" height="20" as="geometry" />
        </mxCell>
        <mxCell id="giKhaPo_mACQfktI18R5-4" value="ISR" style="swimlane;horizontal=0;whiteSpace=wrap;html=1;" vertex="1" collapsed="1" parent="1">
          <mxGeometry x="14" y="240" width="40" height="130" as="geometry">
            <mxRectangle x="14" y="240" width="296" height="300" as="alternateBounds" />
          </mxGeometry>
        </mxCell>
        <mxCell id="giKhaPo_mACQfktI18R5-18" value="" style="ellipse;whiteSpace=wrap;html=1;" vertex="1" parent="giKhaPo_mACQfktI18R5-4">
          <mxGeometry x="176" y="20" width="20" height="20" as="geometry" />
        </mxCell>
        <mxCell id="giKhaPo_mACQfktI18R5-19" value="" style="ellipse;whiteSpace=wrap;html=1;" vertex="1" parent="giKhaPo_mACQfktI18R5-4">
          <mxGeometry x="176" y="260" width="20" height="20" as="geometry" />
        </mxCell>
        <mxCell id="giKhaPo_mACQfktI18R5-20" value="" style="ellipse;whiteSpace=wrap;html=1;fillStyle=solid;fillColor=#000000;" vertex="1" parent="giKhaPo_mACQfktI18R5-4">
          <mxGeometry x="181" y="265" width="10" height="10" as="geometry" />
        </mxCell>
        <mxCell id="giKhaPo_mACQfktI18R5-24" value="" style="endArrow=none;html=1;rounded=0;entryX=0.5;entryY=1;entryDx=0;entryDy=0;exitX=0.5;exitY=0;exitDx=0;exitDy=0;" edge="1" parent="giKhaPo_mACQfktI18R5-4" source="giKhaPo_mACQfktI18R5-19" target="giKhaPo_mACQfktI18R5-18">
          <mxGeometry width="50" height="50" relative="1" as="geometry">
            <mxPoint x="246" y="160" as="sourcePoint" />
            <mxPoint x="296" y="110" as="targetPoint" />
          </mxGeometry>
        </mxCell>
        <mxCell id="giKhaPo_mACQfktI18R5-21" value="Enqueue_Event()" style="rounded=0;whiteSpace=wrap;html=1;" vertex="1" parent="giKhaPo_mACQfktI18R5-4">
          <mxGeometry x="101" y="70" width="170" height="30" as="geometry" />
        </mxCell>
        <mxCell id="giKhaPo_mACQfktI18R5-22" value="Disable_Sleep_Mode()" style="rounded=0;whiteSpace=wrap;html=1;" vertex="1" parent="giKhaPo_mACQfktI18R5-4">
          <mxGeometry x="101" y="140" width="170" height="30" as="geometry" />
        </mxCell>
        <mxCell id="giKhaPo_mACQfktI18R5-23" value="Clear_NVIC()" style="rounded=0;whiteSpace=wrap;html=1;" vertex="1" parent="giKhaPo_mACQfktI18R5-4">
          <mxGeometry x="101" y="210" width="170" height="30" as="geometry" />
        </mxCell>
        <mxCell id="giKhaPo_mACQfktI18R5-25" value="MAIN" style="swimlane;horizontal=0;whiteSpace=wrap;html=1;" vertex="1" collapsed="1" parent="1">
          <mxGeometry x="14" y="420" width="40" height="130" as="geometry">
            <mxRectangle x="14" y="420" width="596" height="440" as="alternateBounds" />
          </mxGeometry>
        </mxCell>
        <mxCell id="giKhaPo_mACQfktI18R5-26" value="" style="ellipse;whiteSpace=wrap;html=1;" vertex="1" parent="giKhaPo_mACQfktI18R5-25">
          <mxGeometry x="176" y="20" width="20" height="20" as="geometry" />
        </mxCell>
        <mxCell id="giKhaPo_mACQfktI18R5-27" value="" style="ellipse;whiteSpace=wrap;html=1;" vertex="1" parent="giKhaPo_mACQfktI18R5-25">
          <mxGeometry x="373" y="410" width="20" height="20" as="geometry" />
        </mxCell>
        <mxCell id="giKhaPo_mACQfktI18R5-28" value="" style="ellipse;whiteSpace=wrap;html=1;fillStyle=solid;fillColor=#000000;direction=south;" vertex="1" parent="giKhaPo_mACQfktI18R5-25">
          <mxGeometry x="378" y="415" width="10" height="10" as="geometry" />
        </mxCell>
        <mxCell id="giKhaPo_mACQfktI18R5-29" value="" style="endArrow=none;html=1;rounded=0;entryX=0.5;entryY=1;entryDx=0;entryDy=0;exitX=0.5;exitY=0;exitDx=0;exitDy=0;" edge="1" parent="giKhaPo_mACQfktI18R5-25" source="giKhaPo_mACQfktI18R5-41" target="giKhaPo_mACQfktI18R5-26">
          <mxGeometry width="50" height="50" relative="1" as="geometry">
            <mxPoint x="246" y="160" as="sourcePoint" />
            <mxPoint x="296" y="110" as="targetPoint" />
          </mxGeometry>
        </mxCell>
        <mxCell id="giKhaPo_mACQfktI18R5-33" value="evt = Dequeue_Event()" style="rounded=0;whiteSpace=wrap;html=1;" vertex="1" parent="giKhaPo_mACQfktI18R5-25">
          <mxGeometry x="96" y="70" width="184" height="20" as="geometry" />
        </mxCell>
        <mxCell id="giKhaPo_mACQfktI18R5-34" value="evt != NULL?" style="rhombus;whiteSpace=wrap;html=1;" vertex="1" parent="giKhaPo_mACQfktI18R5-25">
          <mxGeometry x="132" y="124" width="108" height="40" as="geometry" />
        </mxCell>
        <mxCell id="giKhaPo_mACQfktI18R5-36" style="edgeStyle=orthogonalEdgeStyle;rounded=0;orthogonalLoop=1;jettySize=auto;html=1;exitX=0.5;exitY=0;exitDx=0;exitDy=0;entryX=1;entryY=0.5;entryDx=0;entryDy=0;endArrow=none;endFill=0;" edge="1" parent="giKhaPo_mACQfktI18R5-25" source="giKhaPo_mACQfktI18R5-35" target="giKhaPo_mACQfktI18R5-34">
          <mxGeometry relative="1" as="geometry" />
        </mxCell>
        <mxCell id="giKhaPo_mACQfktI18R5-35" value="Enter_Sleep_Mode()" style="rounded=0;whiteSpace=wrap;html=1;" vertex="1" parent="giKhaPo_mACQfktI18R5-25">
          <mxGeometry x="320" y="200" width="126" height="20" as="geometry" />
        </mxCell>
        <mxCell id="giKhaPo_mACQfktI18R5-40" style="edgeStyle=orthogonalEdgeStyle;rounded=0;orthogonalLoop=1;jettySize=auto;html=1;exitX=0.5;exitY=0;exitDx=0;exitDy=0;entryX=0.5;entryY=1;entryDx=0;entryDy=0;endArrow=none;endFill=0;" edge="1" parent="giKhaPo_mACQfktI18R5-25" source="giKhaPo_mACQfktI18R5-37" target="giKhaPo_mACQfktI18R5-35">
          <mxGeometry relative="1" as="geometry" />
        </mxCell>
        <mxCell id="giKhaPo_mACQfktI18R5-37" value="" style="ellipse;whiteSpace=wrap;html=1;" vertex="1" parent="giKhaPo_mACQfktI18R5-25">
          <mxGeometry x="373" y="240" width="20" height="20" as="geometry" />
        </mxCell>
        <mxCell id="giKhaPo_mACQfktI18R5-38" value="" style="ellipse;whiteSpace=wrap;html=1;fillStyle=solid;fillColor=#000000;direction=south;" vertex="1" parent="giKhaPo_mACQfktI18R5-25">
          <mxGeometry x="378" y="245" width="10" height="10" as="geometry" />
        </mxCell>
        <mxCell id="giKhaPo_mACQfktI18R5-41" value="button_Duration = 0" style="rounded=0;whiteSpace=wrap;html=1;" vertex="1" parent="giKhaPo_mACQfktI18R5-25">
          <mxGeometry x="94" y="200" width="184" height="20" as="geometry" />
        </mxCell>
        <mxCell id="giKhaPo_mACQfktI18R5-42" value="" style="endArrow=none;html=1;rounded=0;entryX=0.5;entryY=1;entryDx=0;entryDy=0;exitX=0.5;exitY=0;exitDx=0;exitDy=0;" edge="1" parent="giKhaPo_mACQfktI18R5-25" source="giKhaPo_mACQfktI18R5-45" target="giKhaPo_mACQfktI18R5-41">
          <mxGeometry width="50" height="50" relative="1" as="geometry">
            <mxPoint x="200" y="880" as="sourcePoint" />
            <mxPoint x="200" y="460" as="targetPoint" />
          </mxGeometry>
        </mxCell>
        <mxCell id="giKhaPo_mACQfktI18R5-48" style="edgeStyle=orthogonalEdgeStyle;rounded=0;orthogonalLoop=1;jettySize=auto;html=1;exitX=1;exitY=0.5;exitDx=0;exitDy=0;entryX=0.5;entryY=0;entryDx=0;entryDy=0;endArrow=none;endFill=0;" edge="1" parent="giKhaPo_mACQfktI18R5-25" source="giKhaPo_mACQfktI18R5-43" target="giKhaPo_mACQfktI18R5-47">
          <mxGeometry relative="1" as="geometry" />
        </mxCell>
        <mxCell id="giKhaPo_mACQfktI18R5-43" value="Button_Pressed()?" style="rhombus;whiteSpace=wrap;html=1;" vertex="1" parent="giKhaPo_mACQfktI18R5-25">
          <mxGeometry x="112" y="260" width="148" height="40" as="geometry" />
        </mxCell>
        <mxCell id="giKhaPo_mACQfktI18R5-44" value="button_Duration ++" style="rounded=0;whiteSpace=wrap;html=1;" vertex="1" parent="giKhaPo_mACQfktI18R5-25">
          <mxGeometry x="94" y="320" width="184" height="20" as="geometry" />
        </mxCell>
        <mxCell id="giKhaPo_mACQfktI18R5-46" style="edgeStyle=orthogonalEdgeStyle;rounded=0;orthogonalLoop=1;jettySize=auto;html=1;exitX=0.5;exitY=1;exitDx=0;exitDy=0;entryX=0.5;entryY=0;entryDx=0;entryDy=0;endArrow=none;endFill=0;" edge="1" parent="giKhaPo_mACQfktI18R5-25" source="giKhaPo_mACQfktI18R5-45" target="giKhaPo_mACQfktI18R5-43">
          <mxGeometry relative="1" as="geometry">
            <Array as="points">
              <mxPoint x="186" y="400" />
              <mxPoint x="66" y="400" />
              <mxPoint x="66" y="240" />
              <mxPoint x="186" y="240" />
            </Array>
          </mxGeometry>
        </mxCell>
        <mxCell id="giKhaPo_mACQfktI18R5-45" value="Delay()" style="rounded=0;whiteSpace=wrap;html=1;" vertex="1" parent="giKhaPo_mACQfktI18R5-25">
          <mxGeometry x="94" y="360" width="184" height="20" as="geometry" />
        </mxCell>
        <mxCell id="giKhaPo_mACQfktI18R5-49" style="edgeStyle=orthogonalEdgeStyle;rounded=0;orthogonalLoop=1;jettySize=auto;html=1;exitX=0.5;exitY=1;exitDx=0;exitDy=0;entryX=0.5;entryY=0;entryDx=0;entryDy=0;endArrow=none;endFill=0;" edge="1" parent="giKhaPo_mACQfktI18R5-25" source="giKhaPo_mACQfktI18R5-47" target="giKhaPo_mACQfktI18R5-27">
          <mxGeometry relative="1" as="geometry" />
        </mxCell>
        <mxCell id="giKhaPo_mACQfktI18R5-47" value="Handle_Button(button_Duration)" style="rounded=0;whiteSpace=wrap;html=1;" vertex="1" parent="giKhaPo_mACQfktI18R5-25">
          <mxGeometry x="290" y="320" width="186" height="20" as="geometry" />
        </mxCell>
        <mxCell id="giKhaPo_mACQfktI18R5-51" value="Enter_Sleep_Mode()" style="rounded=0;whiteSpace=wrap;html=1;" vertex="1" parent="giKhaPo_mACQfktI18R5-25">
          <mxGeometry x="320" y="360" width="126" height="20" as="geometry" />
        </mxCell>
        <mxCell id="giKhaPo_mACQfktI18R5-52" value="Button Duration Ã¼ber Polling, da CPU nicht andersweitig benÃ¶tigt wird.&lt;br&gt;Alternativ: Interrupt auf Change statt Rising Edge, Dauer Ã¼ber SysTicks" style="text;html=1;strokeColor=none;fillColor=none;align=left;verticalAlign=middle;whiteSpace=wrap;rounded=0;" vertex="1" parent="giKhaPo_mACQfktI18R5-25">
          <mxGeometry x="373" y="20" width="187" height="100" as="geometry" />
        </mxCell>
        <mxCell id="giKhaPo_mACQfktI18R5-53" value="Struct DAC_Config_t" style="swimlane;fontStyle=0;childLayout=stackLayout;horizontal=1;startSize=30;horizontalStack=0;resizeParent=1;resizeParentMax=0;resizeLast=0;collapsible=1;marginBottom=0;whiteSpace=wrap;html=1;" vertex="1" parent="1">
          <mxGeometry x="14" y="585" width="186" height="150" as="geometry" />
        </mxCell>
        <mxCell id="giKhaPo_mACQfktI18R5-54" value="uint16_t dac_offset_per_digit" style="text;strokeColor=none;fillColor=none;align=left;verticalAlign=middle;spacingLeft=4;spacingRight=4;overflow=hidden;points=[[0,0.5],[1,0.5]];portConstraint=eastwest;rotatable=0;whiteSpace=wrap;html=1;" vertex="1" parent="giKhaPo_mACQfktI18R5-53">
          <mxGeometry y="30" width="186" height="30" as="geometry" />
        </mxCell>
        <mxCell id="giKhaPo_mACQfktI18R5-55" value="uint16_t dac_Abs_Zero" style="text;strokeColor=none;fillColor=none;align=left;verticalAlign=middle;spacingLeft=4;spacingRight=4;overflow=hidden;points=[[0,0.5],[1,0.5]];portConstraint=eastwest;rotatable=0;whiteSpace=wrap;html=1;" vertex="1" parent="giKhaPo_mACQfktI18R5-53">
          <mxGeometry y="60" width="186" height="30" as="geometry" />
        </mxCell>
        <mxCell id="giKhaPo_mACQfktI18R5-56" value="uint16_t dac_Rel_Zero" style="text;strokeColor=none;fillColor=none;align=left;verticalAlign=middle;spacingLeft=4;spacingRight=4;overflow=hidden;points=[[0,0.5],[1,0.5]];portConstraint=eastwest;rotatable=0;whiteSpace=wrap;html=1;" vertex="1" parent="giKhaPo_mACQfktI18R5-53">
          <mxGeometry y="90" width="186" height="30" as="geometry" />
        </mxCell>
        <mxCell id="giKhaPo_mACQfktI18R5-102" value="uint16_t CRC16" style="text;strokeColor=none;fillColor=none;align=left;verticalAlign=middle;spacingLeft=4;spacingRight=4;overflow=hidden;points=[[0,0.5],[1,0.5]];portConstraint=eastwest;rotatable=0;whiteSpace=wrap;html=1;" vertex="1" parent="giKhaPo_mACQfktI18R5-53">
          <mxGeometry y="120" width="186" height="30" as="geometry" />
        </mxCell>
        <mxCell id="giKhaPo_mACQfktI18R5-61" value="Bisection Abs Zero" style="swimlane;horizontal=0;whiteSpace=wrap;html=1;" vertex="1" parent="1">
          <mxGeometry x="270" y="70" width="460" height="550" as="geometry" />
        </mxCell>
        <mxCell id="giKhaPo_mACQfktI18R5-91" style="edgeStyle=orthogonalEdgeStyle;rounded=0;orthogonalLoop=1;jettySize=auto;html=1;exitX=0.5;exitY=1;exitDx=0;exitDy=0;entryX=0.5;entryY=0;entryDx=0;entryDy=0;" edge="1" parent="giKhaPo_mACQfktI18R5-61" source="giKhaPo_mACQfktI18R5-66" target="giKhaPo_mACQfktI18R5-68">
          <mxGeometry relative="1" as="geometry" />
        </mxCell>
        <mxCell id="giKhaPo_mACQfktI18R5-66" value="" style="ellipse;whiteSpace=wrap;html=1;" vertex="1" parent="giKhaPo_mACQfktI18R5-61">
          <mxGeometry x="150" y="10" width="20" height="20" as="geometry" />
        </mxCell>
        <mxCell id="giKhaPo_mACQfktI18R5-90" style="edgeStyle=orthogonalEdgeStyle;rounded=0;orthogonalLoop=1;jettySize=auto;html=1;exitX=0.5;exitY=1;exitDx=0;exitDy=0;entryX=0.5;entryY=-0.11;entryDx=0;entryDy=0;entryPerimeter=0;" edge="1" parent="giKhaPo_mACQfktI18R5-61" source="giKhaPo_mACQfktI18R5-68" target="giKhaPo_mACQfktI18R5-69">
          <mxGeometry relative="1" as="geometry" />
        </mxCell>
        <mxCell id="giKhaPo_mACQfktI18R5-68" value="uint16_t dac = 0x0;" style="rounded=0;whiteSpace=wrap;html=1;" vertex="1" parent="giKhaPo_mACQfktI18R5-61">
          <mxGeometry x="80" y="50" width="160" height="20" as="geometry" />
        </mxCell>
        <mxCell id="giKhaPo_mACQfktI18R5-88" style="edgeStyle=orthogonalEdgeStyle;rounded=0;orthogonalLoop=1;jettySize=auto;html=1;exitX=0.5;exitY=1;exitDx=0;exitDy=0;entryX=0.5;entryY=0;entryDx=0;entryDy=0;" edge="1" parent="giKhaPo_mACQfktI18R5-61" source="giKhaPo_mACQfktI18R5-69" target="giKhaPo_mACQfktI18R5-70">
          <mxGeometry relative="1" as="geometry" />
        </mxCell>
        <mxCell id="giKhaPo_mACQfktI18R5-69" value="DAC_Write(dac);" style="rounded=0;whiteSpace=wrap;html=1;" vertex="1" parent="giKhaPo_mACQfktI18R5-61">
          <mxGeometry x="80" y="90" width="160" height="20" as="geometry" />
        </mxCell>
        <mxCell id="giKhaPo_mACQfktI18R5-87" style="edgeStyle=orthogonalEdgeStyle;rounded=0;orthogonalLoop=1;jettySize=auto;html=1;exitX=0.5;exitY=1;exitDx=0;exitDy=0;entryX=0.5;entryY=0;entryDx=0;entryDy=0;" edge="1" parent="giKhaPo_mACQfktI18R5-61" source="giKhaPo_mACQfktI18R5-70" target="giKhaPo_mACQfktI18R5-71">
          <mxGeometry relative="1" as="geometry" />
        </mxCell>
        <mxCell id="giKhaPo_mACQfktI18R5-70" value="uint16_t offset = 0x1000;" style="rounded=0;whiteSpace=wrap;html=1;" vertex="1" parent="giKhaPo_mACQfktI18R5-61">
          <mxGeometry x="80" y="130" width="160" height="20" as="geometry" />
        </mxCell>
        <mxCell id="giKhaPo_mACQfktI18R5-73" value="" style="edgeStyle=orthogonalEdgeStyle;rounded=0;orthogonalLoop=1;jettySize=auto;html=1;" edge="1" parent="giKhaPo_mACQfktI18R5-61" source="giKhaPo_mACQfktI18R5-71" target="giKhaPo_mACQfktI18R5-72">
          <mxGeometry relative="1" as="geometry" />
        </mxCell>
        <mxCell id="giKhaPo_mACQfktI18R5-96" value="" style="edgeStyle=orthogonalEdgeStyle;rounded=0;orthogonalLoop=1;jettySize=auto;html=1;" edge="1" parent="giKhaPo_mACQfktI18R5-61" source="giKhaPo_mACQfktI18R5-71" target="giKhaPo_mACQfktI18R5-95">
          <mxGeometry relative="1" as="geometry" />
        </mxCell>
        <mxCell id="giKhaPo_mACQfktI18R5-71" value="offset&amp;gt;0?" style="rhombus;whiteSpace=wrap;html=1;" vertex="1" parent="giKhaPo_mACQfktI18R5-61">
          <mxGeometry x="120" y="170" width="80" height="30" as="geometry" />
        </mxCell>
        <mxCell id="giKhaPo_mACQfktI18R5-80" value="" style="edgeStyle=orthogonalEdgeStyle;rounded=0;orthogonalLoop=1;jettySize=auto;html=1;" edge="1" parent="giKhaPo_mACQfktI18R5-61" source="giKhaPo_mACQfktI18R5-72" target="giKhaPo_mACQfktI18R5-79">
          <mxGeometry relative="1" as="geometry" />
        </mxCell>
        <mxCell id="giKhaPo_mACQfktI18R5-72" value="DAC_Write(dac &amp;amp; offset)" style="whiteSpace=wrap;html=1;" vertex="1" parent="giKhaPo_mACQfktI18R5-61">
          <mxGeometry x="80" y="220" width="160" height="20" as="geometry" />
        </mxCell>
        <mxCell id="giKhaPo_mACQfktI18R5-82" value="" style="edgeStyle=orthogonalEdgeStyle;rounded=0;orthogonalLoop=1;jettySize=auto;html=1;" edge="1" parent="giKhaPo_mACQfktI18R5-61" source="giKhaPo_mACQfktI18R5-79" target="giKhaPo_mACQfktI18R5-81">
          <mxGeometry relative="1" as="geometry" />
        </mxCell>
        <mxCell id="giKhaPo_mACQfktI18R5-86" style="edgeStyle=orthogonalEdgeStyle;rounded=0;orthogonalLoop=1;jettySize=auto;html=1;exitX=1;exitY=0.5;exitDx=0;exitDy=0;entryX=0.5;entryY=0;entryDx=0;entryDy=0;" edge="1" parent="giKhaPo_mACQfktI18R5-61" source="giKhaPo_mACQfktI18R5-79" target="giKhaPo_mACQfktI18R5-83">
          <mxGeometry relative="1" as="geometry">
            <Array as="points">
              <mxPoint x="260" y="281" />
              <mxPoint x="260" y="350" />
              <mxPoint x="160" y="350" />
            </Array>
          </mxGeometry>
        </mxCell>
        <mxCell id="giKhaPo_mACQfktI18R5-79" value="ADC_Read()&amp;lt;0x8000?" style="rhombus;whiteSpace=wrap;html=1;" vertex="1" parent="giKhaPo_mACQfktI18R5-61">
          <mxGeometry x="80" y="260" width="160" height="42.5" as="geometry" />
        </mxCell>
        <mxCell id="giKhaPo_mACQfktI18R5-84" value="" style="edgeStyle=orthogonalEdgeStyle;rounded=0;orthogonalLoop=1;jettySize=auto;html=1;" edge="1" parent="giKhaPo_mACQfktI18R5-61" source="giKhaPo_mACQfktI18R5-81" target="giKhaPo_mACQfktI18R5-83">
          <mxGeometry relative="1" as="geometry" />
        </mxCell>
        <mxCell id="giKhaPo_mACQfktI18R5-81" value="dac &amp;amp;= offset" style="whiteSpace=wrap;html=1;" vertex="1" parent="giKhaPo_mACQfktI18R5-61">
          <mxGeometry x="100" y="320" width="120" height="16.25" as="geometry" />
        </mxCell>
        <mxCell id="giKhaPo_mACQfktI18R5-92" style="edgeStyle=orthogonalEdgeStyle;rounded=0;orthogonalLoop=1;jettySize=auto;html=1;exitX=0.5;exitY=1;exitDx=0;exitDy=0;entryX=0.5;entryY=0;entryDx=0;entryDy=0;" edge="1" parent="giKhaPo_mACQfktI18R5-61" source="giKhaPo_mACQfktI18R5-83" target="giKhaPo_mACQfktI18R5-71">
          <mxGeometry relative="1" as="geometry">
            <Array as="points">
              <mxPoint x="160" y="406" />
              <mxPoint x="50" y="406" />
              <mxPoint x="50" y="160" />
              <mxPoint x="160" y="160" />
            </Array>
          </mxGeometry>
        </mxCell>
        <mxCell id="giKhaPo_mACQfktI18R5-83" value="offset = (offset &amp;gt;&amp;gt; 1);" style="whiteSpace=wrap;html=1;" vertex="1" parent="giKhaPo_mACQfktI18R5-61">
          <mxGeometry x="100" y="370" width="120" height="15.63" as="geometry" />
        </mxCell>
        <mxCell id="giKhaPo_mACQfktI18R5-98" value="" style="edgeStyle=orthogonalEdgeStyle;rounded=0;orthogonalLoop=1;jettySize=auto;html=1;" edge="1" parent="giKhaPo_mACQfktI18R5-61" source="giKhaPo_mACQfktI18R5-95" target="giKhaPo_mACQfktI18R5-97">
          <mxGeometry relative="1" as="geometry" />
        </mxCell>
        <mxCell id="giKhaPo_mACQfktI18R5-95" value="DAC_Write(dac+4)" style="whiteSpace=wrap;html=1;" vertex="1" parent="giKhaPo_mACQfktI18R5-61">
          <mxGeometry x="300" y="175" width="120" height="20" as="geometry" />
        </mxCell>
        <mxCell id="giKhaPo_mACQfktI18R5-64" value="" style="ellipse;whiteSpace=wrap;html=1;" vertex="1" parent="giKhaPo_mACQfktI18R5-61">
          <mxGeometry x="350" y="318.13" width="20" height="20" as="geometry" />
        </mxCell>
        <mxCell id="giKhaPo_mACQfktI18R5-65" value="" style="ellipse;whiteSpace=wrap;html=1;fillStyle=solid;fillColor=#000000;direction=south;" vertex="1" parent="giKhaPo_mACQfktI18R5-61">
          <mxGeometry x="355" y="323.13" width="10" height="10" as="geometry" />
        </mxCell>
        <mxCell id="giKhaPo_mACQfktI18R5-100" value="" style="edgeStyle=orthogonalEdgeStyle;rounded=0;orthogonalLoop=1;jettySize=auto;html=1;" edge="1" parent="giKhaPo_mACQfktI18R5-61" source="giKhaPo_mACQfktI18R5-97" target="giKhaPo_mACQfktI18R5-99">
          <mxGeometry relative="1" as="geometry" />
        </mxCell>
        <mxCell id="giKhaPo_mACQfktI18R5-97" value="dac_offset_per_digit = ADC_Read()/4" style="whiteSpace=wrap;html=1;" vertex="1" parent="giKhaPo_mACQfktI18R5-61">
          <mxGeometry x="280" y="210" width="160" height="40" as="geometry" />
        </mxCell>
        <mxCell id="giKhaPo_mACQfktI18R5-101" style="edgeStyle=orthogonalEdgeStyle;rounded=0;orthogonalLoop=1;jettySize=auto;html=1;exitX=0.5;exitY=1;exitDx=0;exitDy=0;entryX=0.5;entryY=0;entryDx=0;entryDy=0;" edge="1" parent="giKhaPo_mACQfktI18R5-61" source="giKhaPo_mACQfktI18R5-99" target="giKhaPo_mACQfktI18R5-64">
          <mxGeometry relative="1" as="geometry" />
        </mxCell>
        <mxCell id="giKhaPo_mACQfktI18R5-99" value="DAC_Write(dac)" style="whiteSpace=wrap;html=1;" vertex="1" parent="giKhaPo_mACQfktI18R5-61">
          <mxGeometry x="300" y="271.25" width="120" height="20" as="geometry" />
        </mxCell>
      </root>
    </mxGraphModel>
  </diagram>
</mxfile>
